<svg width="54" height="54" viewBox="0 0 54 54" fill="none" xmlns="http://www.w3.org/2000/svg">
<path fill-rule="evenodd" clip-rule="evenodd" d="M4.23826 4.23859C0.333007 8.14381 0.333008 14.4292 0.333008 27C0.333008 39.5707 0.333007 45.8563 4.23826 49.7613C8.14349 53.6667 14.4289 53.6667 26.9997 53.6667C39.5703 53.6667 45.8559 53.6667 49.761 49.7613C53.6663 45.8563 53.6663 39.5707 53.6663 27C53.6663 14.4292 53.6663 8.14381 49.761 4.23859C45.8559 0.333332 39.5703 0.333332 26.9997 0.333332C14.4289 0.333332 8.14349 0.333332 4.23826 4.23859ZM35.2647 27.2493C34.7717 26.4443 34.2911 25.6592 33.821 25.0973C33.3218 24.5008 32.4469 23.6805 31.109 23.7341C29.7709 23.7877 28.9647 24.6757 28.5149 25.3101C28.0914 25.908 27.6751 26.7291 27.2485 27.5709L21.9474 38.0237C21.7471 38.4184 21.5805 38.7469 21.4305 39.0293C21.2482 38.7667 21.0436 38.4603 20.7982 38.092L20.3265 37.3845C19.7842 36.5709 19.3039 35.8504 18.8434 35.2821C18.344 34.6659 17.7816 34.1155 17.0234 33.7096C16.2653 33.304 15.4954 33.1413 14.7056 33.0675C13.9774 32.9997 13.1114 32.9997 12.1337 32.9997H8.33301C7.22845 32.9997 6.33301 33.8952 6.33301 34.9997C6.33301 36.1043 7.22845 36.9997 8.33301 36.9997H12.0515C13.136 36.9997 13.8138 37.0019 14.3343 37.0504C14.8135 37.0949 15.0098 37.1688 15.136 37.2365C15.2622 37.304 15.4326 37.4264 15.7356 37.8003C16.0646 38.2064 16.4423 38.7693 17.0438 39.6715L17.5399 40.4157C18.042 41.1693 18.5359 41.9107 19.0144 42.4395C19.5287 43.008 20.4082 43.7656 21.7071 43.6885C23.0063 43.6112 23.7898 42.7549 24.2333 42.1296C24.6458 41.5477 25.0485 40.7531 25.4578 39.9456L30.7575 29.4949C30.9666 29.0829 31.141 28.7392 31.2981 28.4437C31.4781 28.7259 31.6794 29.0544 31.9207 29.4483L33.6647 32.2957C34.1983 33.1672 34.6706 33.9381 35.129 34.5464C35.6258 35.2059 36.1935 35.7968 36.9746 36.2344C37.7559 36.672 38.5562 36.8475 39.3783 36.9267C40.1365 37 41.0405 36.9997 42.0623 36.9997H45.6663C46.7709 36.9997 47.6663 36.1043 47.6663 34.9997C47.6663 33.8952 46.7709 32.9997 45.6663 32.9997H42.1477C41.0149 32.9997 40.3055 32.9976 39.7623 32.9453C39.2618 32.8971 39.0591 32.8173 38.9295 32.7445C38.7999 32.672 38.6263 32.5411 38.3237 32.1392C37.9951 31.7035 37.6229 31.0997 37.0311 30.1336L35.2647 27.2493Z" fill="#14C88F"/>
</svg>
